<svg xmlns="http://www.w3.org/2000/svg" xmlns:xlink="http://www.w3.org/1999/xlink" width="500" zoomAndPan="magnify" viewBox="0 0 375 374.999991" height="500" preserveAspectRatio="xMidYMid meet" version="1.0"><defs><g/><clipPath id="143e9d35c0"><path d="M 62.507812 175.957031 L 69.550781 175.957031 L 69.550781 204.878906 L 62.507812 204.878906 Z M 62.507812 175.957031 " clip-rule="nonzero"/></clipPath><clipPath id="500dfb9af1"><path d="M 37.488281 167.496094 L 44.53125 167.496094 L 44.53125 196.417969 L 37.488281 196.417969 Z M 37.488281 167.496094 " clip-rule="nonzero"/></clipPath><clipPath id="02b284d807"><path d="M 37.496094 197.828125 L 61.121094 197.828125 L 61.121094 204.871094 L 37.496094 204.871094 Z M 37.496094 197.828125 " clip-rule="nonzero"/></clipPath><clipPath id="755cc9d4d2"><path d="M 45.921875 167.5 L 69.546875 167.5 L 69.546875 174.542969 L 45.921875 174.542969 Z M 45.921875 167.5 " clip-rule="nonzero"/></clipPath></defs><rect x="-37.5" width="450" fill="#ffffff" y="-37.499999" height="449.999989" fill-opacity="1"/><rect x="-37.5" width="450" fill="#000000" y="-37.499999" height="449.999989" fill-opacity="1"/><g clip-path="url(#143e9d35c0)"><path fill="#e8e8e8" d="M 62.507812 175.957031 L 69.550781 175.957031 L 69.550781 204.867188 L 62.507812 204.867188 Z M 62.507812 175.957031 " fill-opacity="1" fill-rule="nonzero"/></g><g clip-path="url(#500dfb9af1)"><path fill="#e8e8e8" d="M 44.53125 196.417969 L 37.488281 196.417969 L 37.488281 167.503906 L 44.53125 167.503906 Z M 44.53125 196.417969 " fill-opacity="1" fill-rule="nonzero"/></g><g clip-path="url(#02b284d807)"><path fill="#e8e8e8" d="M 37.496094 204.871094 L 37.496094 197.828125 L 61.125 197.828125 L 61.125 204.871094 Z M 37.496094 204.871094 " fill-opacity="1" fill-rule="nonzero"/></g><g clip-path="url(#755cc9d4d2)"><path fill="#e8e8e8" d="M 69.546875 167.5 L 69.546875 174.542969 L 45.914062 174.542969 L 45.914062 167.5 Z M 69.546875 167.5 " fill-opacity="1" fill-rule="nonzero"/></g><g fill="#e8e8e8" fill-opacity="1"><g transform="translate(69.552262, 204.175594)"><g><path d="M 34.570312 -36.574219 L 27.070312 -36.574219 C 25.789062 -36.574219 25.402344 -36.460938 24.289062 -35.238281 L 12.785156 -22.566406 L 12.785156 -34.960938 C 12.785156 -36.238281 12.171875 -36.574219 11.226562 -36.574219 L 5.726562 -36.574219 C 4.667969 -36.574219 4.113281 -36.238281 4.113281 -34.960938 L 4.113281 -1.613281 C 4.113281 -0.332031 4.667969 0 5.726562 0 L 11.226562 0 C 12.171875 0 12.785156 -0.332031 12.785156 -1.613281 L 12.785156 -11.503906 L 16.230469 -15.117188 C 19.230469 -10.117188 24.179688 -1.777344 24.179688 -1.777344 C 24.902344 -0.613281 25.625 0 26.957031 0 L 33.738281 0 C 34.792969 0 35.015625 -1.054688 34.570312 -1.777344 L 22.621094 -21.453125 L 35.128906 -35.015625 C 35.628906 -35.515625 35.628906 -36.574219 34.570312 -36.574219 Z M 34.570312 -36.574219 "/></g></g></g><g fill="#e8e8e8" fill-opacity="1"><g transform="translate(100.787666, 204.175594)"><g><path d="M 31.460938 -36.574219 L 25.957031 -36.574219 C 24.957031 -36.574219 24.34375 -36.238281 24.34375 -34.960938 L 24.34375 -12.394531 C 24.34375 -8.894531 22.011719 -6.890625 18.34375 -6.890625 C 14.671875 -6.890625 12.394531 -8.894531 12.394531 -12.394531 L 12.394531 -34.960938 C 12.394531 -36.238281 11.785156 -36.574219 10.78125 -36.574219 L 5.28125 -36.574219 C 4.28125 -36.574219 3.667969 -36.238281 3.667969 -34.960938 L 3.667969 -11.171875 C 3.667969 -2.445312 11.726562 0.832031 18.34375 0.832031 C 24.957031 0.832031 33.070312 -2.445312 33.070312 -11.171875 L 33.070312 -34.960938 C 33.070312 -36.238281 32.460938 -36.574219 31.460938 -36.574219 Z M 31.460938 -36.574219 "/></g></g></g><g fill="#e8e8e8" fill-opacity="1"><g transform="translate(132.412124, 204.175594)"><g><path d="M 30.179688 -18.953125 C 30.679688 -19.175781 34.238281 -20.953125 34.238281 -26.566406 C 34.238281 -31.792969 30.347656 -36.628906 21.289062 -36.628906 L 5.726562 -36.628906 C 4.445312 -36.628906 4.113281 -36.015625 4.113281 -35.015625 L 4.113281 -1.613281 C 4.113281 -0.613281 4.445312 0 5.726562 0 L 22.066406 0 C 29.792969 0 35.292969 -3.613281 35.292969 -10.671875 C 35.292969 -16.675781 30.625 -18.785156 30.179688 -18.953125 Z M 22.175781 -7.894531 L 12.839844 -7.894531 L 12.839844 -28.792969 L 21.289062 -28.792969 C 24.179688 -28.792969 25.902344 -28.179688 25.902344 -25.679688 C 25.902344 -23.511719 24.511719 -22.34375 21.289062 -22.34375 L 20.566406 -22.34375 C 19.285156 -22.34375 18.953125 -21.734375 18.953125 -20.730469 L 18.953125 -16.507812 C 18.953125 -15.507812 19.285156 -14.894531 20.566406 -14.894531 L 21.84375 -14.894531 C 24.511719 -14.894531 26.457031 -14.117188 26.457031 -11.503906 C 26.457031 -9.003906 24.902344 -7.894531 22.175781 -7.894531 Z M 22.175781 -7.894531 "/></g></g></g><g fill="#e8e8e8" fill-opacity="1"><g transform="translate(165.481665, 204.175594)"><g><path d="M 30.625 -7.78125 L 12.894531 -7.78125 L 12.894531 -15.117188 L 27.789062 -15.117188 C 29.070312 -15.117188 29.402344 -15.730469 29.402344 -16.730469 L 29.402344 -21.066406 C 29.402344 -22.066406 29.070312 -22.675781 27.789062 -22.675781 L 12.894531 -22.675781 L 12.894531 -28.734375 L 29.679688 -28.734375 C 30.960938 -28.734375 31.292969 -29.347656 31.292969 -30.347656 L 31.292969 -34.960938 C 31.292969 -35.960938 30.960938 -36.574219 29.679688 -36.574219 L 5.726562 -36.574219 C 4.445312 -36.574219 4.113281 -35.960938 4.113281 -34.960938 L 4.113281 -1.613281 C 4.113281 -0.613281 4.445312 0 5.726562 0 L 30.625 0 C 31.902344 0 32.238281 -0.613281 32.238281 -1.613281 L 32.238281 -6.167969 C 32.238281 -7.171875 31.902344 -7.78125 30.625 -7.78125 Z M 30.625 -7.78125 "/></g></g></g><g fill="#e8e8e8" fill-opacity="1"><g transform="translate(195.216406, 204.175594)"><g/></g></g><g fill="#e8e8e8" fill-opacity="1"><g transform="translate(205.164703, 204.175594)"><g><path d="M 30.625 -7.78125 L 12.894531 -7.78125 L 12.894531 -15.117188 L 27.789062 -15.117188 C 29.070312 -15.117188 29.402344 -15.730469 29.402344 -16.730469 L 29.402344 -21.066406 C 29.402344 -22.066406 29.070312 -22.675781 27.789062 -22.675781 L 12.894531 -22.675781 L 12.894531 -28.734375 L 29.679688 -28.734375 C 30.960938 -28.734375 31.292969 -29.347656 31.292969 -30.347656 L 31.292969 -34.960938 C 31.292969 -35.960938 30.960938 -36.574219 29.679688 -36.574219 L 5.726562 -36.574219 C 4.445312 -36.574219 4.113281 -35.960938 4.113281 -34.960938 L 4.113281 -1.613281 C 4.113281 -0.613281 4.445312 0 5.726562 0 L 30.625 0 C 31.902344 0 32.238281 -0.613281 32.238281 -1.613281 L 32.238281 -6.167969 C 32.238281 -7.171875 31.902344 -7.78125 30.625 -7.78125 Z M 30.625 -7.78125 "/></g></g></g><g fill="#e8e8e8" fill-opacity="1"><g transform="translate(234.899444, 204.175594)"><g><path d="M 21.34375 -21.230469 C 19.121094 -22.121094 10.949219 -23.34375 10.949219 -26.734375 C 10.949219 -29.234375 14.007812 -29.957031 15.839844 -29.957031 C 17.507812 -29.957031 19.507812 -29.457031 20.566406 -28.457031 C 21.230469 -27.789062 21.511719 -27.347656 21.734375 -26.789062 C 22.011719 -26.066406 22.175781 -25.289062 23.234375 -25.289062 L 28.679688 -25.289062 C 29.957031 -25.289062 30.292969 -25.511719 30.292969 -26.847656 C 30.292969 -34.183594 22.566406 -37.40625 15.507812 -37.40625 C 8.558594 -37.128906 2 -33.570312 2 -26.347656 C 2 -19.285156 7.171875 -17.0625 12.785156 -15.285156 C 17.507812 -13.785156 22.457031 -13.730469 22.457031 -10.617188 C 22.457031 -7.503906 20.007812 -6.835938 17.007812 -6.835938 C 14.953125 -6.835938 12.671875 -7.335938 11.5625 -8.671875 C 10.839844 -9.503906 10.5625 -10.226562 10.503906 -10.949219 C 10.394531 -12.339844 9.78125 -12.507812 8.503906 -12.507812 L 3.113281 -12.507812 C 1.835938 -12.507812 1.5 -12.226562 1.5 -10.949219 C 1.5 -3.167969 9.503906 0.832031 16.453125 0.832031 C 25.011719 0.832031 31.238281 -2.945312 31.238281 -10.839844 C 31.238281 -18.398438 25.34375 -20.007812 21.34375 -21.230469 Z M 21.34375 -21.230469 "/></g></g></g><g fill="#e8e8e8" fill-opacity="1"><g transform="translate(263.411426, 204.175594)"><g><path d="M 28.847656 -36.574219 L 3.058594 -36.574219 C 1.777344 -36.574219 1.445312 -35.960938 1.445312 -34.960938 L 1.445312 -30.347656 C 1.445312 -29.347656 1.777344 -28.734375 3.058594 -28.734375 L 11.617188 -28.734375 L 11.617188 -1.613281 C 11.617188 -0.332031 12.226562 0 13.226562 0 L 18.730469 0 C 19.730469 0 20.34375 -0.332031 20.34375 -1.613281 L 20.34375 -28.734375 L 28.847656 -28.734375 C 30.125 -28.734375 30.457031 -29.347656 30.457031 -30.347656 L 30.457031 -34.960938 C 30.457031 -35.960938 30.125 -36.574219 28.847656 -36.574219 Z M 28.847656 -36.574219 "/></g></g></g><g fill="#e8e8e8" fill-opacity="1"><g transform="translate(290.200433, 204.175594)"><g><path d="M 30.292969 -10.503906 C 30.292969 -14.453125 28.125 -17.285156 24.179688 -19.34375 C 27.125 -21.121094 29.015625 -24.011719 29.015625 -27.125 C 29.015625 -32.570312 24.679688 -37.296875 16.117188 -37.296875 C 7.503906 -37.296875 3.167969 -32.570312 3.167969 -27.125 C 3.167969 -24.011719 5.058594 -21.121094 8.003906 -19.34375 C 4.113281 -17.285156 1.890625 -14.453125 1.890625 -10.503906 C 1.890625 -4.222656 6.726562 0.777344 16.117188 0.777344 C 25.457031 0.777344 30.292969 -4.222656 30.292969 -10.503906 Z M 11.839844 -26.847656 C 11.839844 -29.070312 13.730469 -30.792969 16.117188 -30.792969 C 18.453125 -30.792969 20.398438 -29.070312 20.398438 -26.847656 C 20.398438 -25.511719 19.285156 -23.066406 16.117188 -23.066406 C 12.894531 -23.066406 11.839844 -25.511719 11.839844 -26.847656 Z M 21.398438 -11.003906 C 21.398438 -8.503906 19.007812 -6.558594 16.117188 -6.558594 C 13.171875 -6.558594 10.839844 -8.503906 10.839844 -11.003906 C 10.839844 -13.507812 13.171875 -15.453125 16.117188 -15.453125 C 19.007812 -15.453125 21.398438 -13.507812 21.398438 -11.003906 Z M 21.398438 -11.003906 "/></g></g></g></svg>